<svg width="66" height="58" viewBox="0 0 66 58" fill="none" xmlns="http://www.w3.org/2000/svg">
<path d="M57.8869 43.1666C58.6082 38.9007 58.822 34.5644 58.5237 30.2483C58.3591 28.119 57.9819 26.0115 57.3978 23.9572C56.841 21.9771 56.0122 20.0837 54.935 18.3314C53.9277 16.6799 52.6454 15.2127 51.1437 13.9933C49.6842 12.8222 47.9738 12.0044 46.146 11.6037C44.3054 11.2475 42.4085 11.3082 40.5945 11.7814C38.7594 12.2674 36.9981 12.9979 35.3577 13.9532C32.0961 15.9475 29.0358 18.2537 26.22 20.8395C23.5339 23.3126 20.5949 25.496 17.4514 27.3534C15.9856 28.1834 14.3963 28.7732 12.7439 29.1004C11.172 29.3676 9.56026 29.2806 8.02618 28.846C6.47582 28.3904 5.07269 27.5347 3.95775 26.3651C2.75096 25.0059 1.99216 23.3079 1.78456 21.5022C1.8894 23.3835 2.55238 25.1909 3.68889 26.6938C4.76175 28.0234 6.16024 29.0529 7.74852 29.6823C9.32948 30.2915 11.0278 30.5351 12.7163 30.3949C14.491 30.1999 16.2212 29.7119 17.8362 28.9507C24.5434 25.9234 30.0768 19.9356 36.1989 17.1153C37.6342 16.4135 39.1595 15.9132 40.7316 15.6286C42.1516 15.3798 43.6096 15.4589 44.9942 15.86C46.3754 16.3638 47.6432 17.1361 48.7245 18.1321C49.8058 19.1282 50.6794 20.3284 51.2947 21.6636C52.0421 23.1092 52.5914 24.6489 52.9278 26.2411C53.2915 27.9466 53.4879 29.6835 53.5141 31.4271C53.537 35.1549 53.1267 38.8727 52.2916 42.5058L57.8869 43.1666Z" fill="#26306A"/>
<path d="M45.7586 38.5844L52.3858 55.6497L63.8533 41.3789L45.7586 38.5844Z" fill="#26306A"/>
<path d="M35.0425 20.679C37.0449 20.5417 39.0563 20.7358 40.9956 21.2536C42.857 21.7576 44.5675 22.7077 45.9791 24.0216C47.3737 25.3759 48.4838 26.9952 49.2442 28.7843C50.0408 30.6424 50.6841 32.5626 51.1677 34.5256C51.2651 32.4377 50.9847 30.3494 50.3398 28.3612C50.0109 27.347 49.5728 26.3716 49.0333 25.452C48.4628 24.5309 47.7826 23.6825 47.0075 22.9254C45.4074 21.4399 43.4039 20.4607 41.2488 20.1107C39.166 19.752 37.0255 19.948 35.0425 20.679Z" fill="#26306A"/>
<path d="M2.60588 19.387C3.4739 21.0809 4.71866 22.5532 6.24454 23.6909C7.79379 24.884 9.60609 25.6891 11.53 26.0388C13.4606 26.3998 15.452 26.2518 17.308 25.6094C18.2161 25.3177 19.0894 24.9272 19.9123 24.4449C20.7008 23.9345 21.4519 23.3684 22.1598 22.751C21.243 23.0134 20.419 23.3931 19.5566 23.6554L18.2599 24.0077C18.0442 24.0567 17.8385 24.1445 17.6212 24.1815L16.9683 24.282C15.2774 24.6144 13.5388 24.6236 11.8445 24.3092C10.1418 23.9981 8.50368 23.4022 6.9991 22.5465C5.4302 21.6468 3.95805 20.588 2.60588 19.387Z" fill="#26306A"/>
</svg>
