<svg xmlns="http://www.w3.org/2000/svg" xmlns:xlink="http://www.w3.org/1999/xlink" width="48" zoomAndPan="magnify" viewBox="0 0 36 36.000001" height="48" preserveAspectRatio="xMidYMid meet" version="1.0"><defs><clipPath id="99a00b38e7"><path d="M 1.363281 0.875 L 34.636719 0.875 L 34.636719 34.152344 L 1.363281 34.152344 Z M 1.363281 0.875 " clip-rule="nonzero"/></clipPath><clipPath id="f2922319c7"><path d="M 18 0.875 C 8.8125 0.875 1.363281 8.324219 1.363281 17.511719 C 1.363281 26.703125 8.8125 34.152344 18 34.152344 C 27.1875 34.152344 34.636719 26.703125 34.636719 17.511719 C 34.636719 8.324219 27.1875 0.875 18 0.875 " clip-rule="nonzero"/></clipPath><clipPath id="4e1cc60b69"><path d="M 7.792969 7.121094 L 28.226562 7.121094 L 28.226562 27.554688 L 7.792969 27.554688 Z M 7.792969 7.121094 " clip-rule="nonzero"/></clipPath></defs><g clip-path="url(#99a00b38e7)"><g clip-path="url(#f2922319c7)"><path fill="#0f0d1e" d="M 1.363281 0.875 L 34.636719 0.875 L 34.636719 34.152344 L 1.363281 34.152344 Z M 1.363281 0.875 " fill-opacity="1" fill-rule="nonzero"/></g></g><g clip-path="url(#4e1cc60b69)"><path fill="#664efd" d="M 22.070312 17.332031 L 22.070312 14.492188 C 22.070312 13.875 21.554688 13.367188 20.925781 13.367188 L 15.621094 13.367188 C 14.546875 13.367188 11.792969 10.730469 11.792969 9.714844 L 11.792969 7.671875 C 11.792969 7.371094 11.539062 7.121094 11.230469 7.121094 L 8.359375 7.121094 C 8.050781 7.121094 7.796875 7.371094 7.796875 7.671875 L 7.796875 10.492188 C 7.796875 10.796875 8.050781 11.046875 8.359375 11.046875 L 10.152344 11.046875 C 11.175781 11.046875 13.992188 13.941406 13.992188 15.03125 L 13.992188 19.644531 C 13.992188 20.734375 11.175781 23.628906 10.152344 23.628906 L 8.359375 23.628906 C 8.050781 23.628906 7.796875 23.878906 7.796875 24.179688 L 7.796875 26.996094 C 7.796875 27.304688 8.050781 27.554688 8.359375 27.554688 L 11.230469 27.554688 C 11.539062 27.554688 11.792969 27.304688 11.792969 26.996094 L 11.792969 24.953125 C 11.792969 23.945312 14.546875 21.300781 15.621094 21.300781 L 20.925781 21.300781 C 21.554688 21.300781 22.070312 20.792969 22.070312 20.183594 Z M 14.441406 27.554688 L 14.441406 25.089844 L 20.925781 25.089844 C 23.5625 25.089844 25.722656 22.96875 25.722656 20.382812 L 25.722656 14.289062 C 25.722656 11.699219 23.5625 9.578125 20.925781 9.578125 L 14.441406 9.578125 L 14.441406 7.121094 L 20.925781 7.121094 C 24.941406 7.121094 28.222656 10.347656 28.222656 14.289062 L 28.222656 20.382812 C 28.222656 24.320312 24.941406 27.554688 20.925781 27.554688 Z M 11.792969 17.332031 L 11.792969 18.742188 C 11.792969 19.050781 11.539062 19.300781 11.230469 19.300781 L 8.359375 19.300781 C 8.050781 19.300781 7.796875 19.050781 7.796875 18.742188 L 7.796875 15.925781 C 7.796875 15.625 8.050781 15.375 8.359375 15.375 L 11.230469 15.375 C 11.539062 15.375 11.792969 15.625 11.792969 15.925781 Z M 11.792969 17.332031 " fill-opacity="1" fill-rule="evenodd"/></g></svg>