<svg xmlns="http://www.w3.org/2000/svg" width="36.714" height="36.715" viewBox="0 0 36.714 36.715"><path d="M18.375,17.637a1.721,1.721,0,0,0-1.721,1.721,52.435,52.435,0,0,1-1.986,15.17,1.721,1.721,0,1,0,3.314.93,55.5,55.5,0,0,0,2.114-16.1,1.72,1.72,0,0,0-1.72-1.721Zm-.062-5.861a7.172,7.172,0,0,0-7.4,7.249,47.047,47.047,0,0,1-.959,10.222,1.721,1.721,0,0,0,3.37.7,50.485,50.485,0,0,0,1.03-10.973,3.736,3.736,0,0,1,3.9-3.753A4.15,4.15,0,0,1,22.394,19.2a57.65,57.65,0,0,1-.761,10.294,1.72,1.72,0,1,0,3.395.56,61.167,61.167,0,0,0,.808-10.908,7.618,7.618,0,0,0-7.523-7.366Zm-7.937-1.418a1.723,1.723,0,0,0-2.421.25,12.437,12.437,0,0,0-2.779,8.031,41.644,41.644,0,0,1-.653,8.035,1.721,1.721,0,0,0,3.388.612,45.1,45.1,0,0,0,.707-8.7,8.862,8.862,0,0,1,2.008-5.806,1.722,1.722,0,0,0-.25-2.421Zm7.85-4.47a12.818,12.818,0,0,0-3.283.356,1.721,1.721,0,0,0,.793,3.35,10.292,10.292,0,0,1,2.438-.265,10.038,10.038,0,0,1,9.959,9.651,63.181,63.181,0,0,1-.4,8.148,1.721,1.721,0,1,0,3.42.392,66.623,66.623,0,0,0,.422-8.594A13.5,13.5,0,0,0,18.226,5.889ZM36.3,14.6a1.721,1.721,0,1,0-3.361.741,17.882,17.882,0,0,1,.337,4.417,1.721,1.721,0,0,0,1.707,1.735H35a1.721,1.721,0,0,0,1.721-1.707A21.309,21.309,0,0,0,36.3,14.6ZM33.424,8.092A19.075,19.075,0,0,0,18.137,0,17.962,17.962,0,0,0,5.061,5.23,17.1,17.1,0,0,0,.019,17.687L.01,19.227A1.72,1.72,0,0,0,1.68,21h.052A1.722,1.722,0,0,0,3.45,19.328l.011-1.7A13.68,13.68,0,0,1,7.5,7.665a14.532,14.532,0,0,1,10.59-4.221,15.622,15.622,0,0,1,12.522,6.625,1.72,1.72,0,1,0,2.815-1.977Z" transform="translate(-0.009 0)" fill="#fff"/></svg>