<svg xmlns="http://www.w3.org/2000/svg" width="35.322" height="31.397" viewBox="0 0 35.322 31.397"><path d="M17.663,7.05,4.262,18.87a2.837,2.837,0,0,1-.335.205V30.416a.981.981,0,0,0,.981.981h9.151l-2.283-4.465,6.384-3.925L14.471,15.7l9.079,8.388-6.384,3.925L19.613,31.4h10.8a.981.981,0,0,0,.981-.981V19.078a2.861,2.861,0,0,1-.323-.2ZM35,14.489l-3.6-3.178V2.943a.981.981,0,0,0-.981-.981H26.493a.981.981,0,0,0-.981.981v3.17L19.3.632a2.444,2.444,0,0,0-3.278,0L.327,14.489a.981.981,0,0,0-.074,1.386l1.312,1.461a.981.981,0,0,0,1.386.074l14.063-12.4a.982.982,0,0,1,1.3,0l14.063,12.4a.982.982,0,0,0,1.386-.074l1.312-1.461A.981.981,0,0,0,35,14.489Z" transform="translate(-0.002)" fill="#fff"/></svg>