<svg xmlns="http://www.w3.org/2000/svg" width="38.034" height="35.915" viewBox="0 0 38.034 35.915"><path d="M16.509,21.753a1.8,1.8,0,1,1-1.8,1.8,1.8,1.8,0,0,1,1.8-1.8m0-3.591A5.387,5.387,0,1,0,21.9,23.549a5.38,5.38,0,0,0-5.387-5.387ZM31.773,14.57l1.957-4.328,4.328-1.957L33.73,6.328,31.773,2,29.816,6.328,25.488,8.285l4.328,1.957Zm4.992,6.68-1.4-3.089-1.4,3.089-3.089,1.4,3.089,1.4,1.4,3.089,1.4-3.089,3.089-1.4Zm-9.033,2.3c0-.215,0-.449-.018-.664l3.484-2.64-4.489-7.776-4.022,1.688a11.98,11.98,0,0,0-1.149-.664L21,9.183H12.02l-.539,4.328c-.4.2-.772.431-1.149.664L6.309,12.469,1.82,20.245,5.3,22.885c-.018.215-.018.449-.018.664s0,.449.018.664L1.82,26.853l4.489,7.776,4.022-1.688a11.98,11.98,0,0,0,1.149.664l.539,4.31H21l.539-4.328a10.57,10.57,0,0,0,1.149-.664l4.022,1.688L31.2,26.835,27.715,24.2C27.733,24,27.733,23.764,27.733,23.549Zm-2.55,6.537-3.107-1.311a7.554,7.554,0,0,1-3.825,2.209l-.431,3.34H15.2l-.413-3.34a7.554,7.554,0,0,1-3.825-2.209L7.854,30.085,6.543,27.8l2.676-2.029a7.708,7.708,0,0,1,0-4.418L6.543,19.329l1.311-2.281,3.107,1.311a7.554,7.554,0,0,1,3.825-2.209l.413-3.376h2.64l.413,3.34a7.554,7.554,0,0,1,3.825,2.209l3.107-1.311,1.311,2.281-2.676,2.029a7.708,7.708,0,0,1,0,4.418l2.676,2.029Z" transform="translate(-1.82 -2)" fill="#fff"/></svg>